<svg width="21" height="22" viewBox="0 0 21 22" fill="none" xmlns="http://www.w3.org/2000/svg">
<path d="M4.11543 3.23932C4.18518 4.27439 4.35956 5.2862 4.63858 6.25148L3.24352 7.64708C2.76687 6.25148 2.46461 4.77448 2.35998 3.23932H4.11543ZM15.5782 17.2185C16.5663 17.4977 17.5778 17.6721 18.6008 17.7419V19.4747C17.0662 19.3701 15.5898 19.0677 14.1831 18.6025L15.5782 17.2185ZM5.23148 0.91333H1.16255C0.523148 0.91333 0 1.43668 0 2.07633C0 12.9969 8.84701 21.8473 19.7634 21.8473C20.4028 21.8473 20.9259 21.3239 20.9259 20.6843V16.6254C20.9259 15.9858 20.4028 15.4624 19.7634 15.4624C18.3218 15.4624 16.9151 15.2298 15.613 14.7995C15.4968 14.753 15.3689 14.7414 15.2527 14.7414C14.9504 14.7414 14.6598 14.8577 14.4272 15.0786L11.8696 17.6372C8.57962 15.9509 5.8825 13.2643 4.20843 9.97307L6.76604 7.41448C7.09156 7.08884 7.18456 6.63527 7.05668 6.22822C6.62654 4.92567 6.39403 3.53007 6.39403 2.07633C6.39403 1.43668 5.87088 0.91333 5.23148 0.91333Z" fill="white" fill-opacity="0.8"/>
</svg>
