<svg width="144" height="86" viewBox="0 0 144 86" fill="none" xmlns="http://www.w3.org/2000/svg">
<path fill-rule="evenodd" clip-rule="evenodd" d="M111.764 59.927C112.151 60.1203 117.273 66.725 118.272 67.9493C118.916 68.7225 119.69 69.9468 121.107 70.0757C123.137 70.269 125.134 68.6259 124.297 66.3384C123.878 65.243 121.526 63.1165 120.817 62.2789L118.433 59.7014C118.787 59.5081 119.625 59.3148 120.141 59.0893C120.721 58.8316 121.236 58.5094 121.752 58.1228C125.618 55.1587 125.038 47.4586 119.367 45.3322C117.144 44.4945 112.602 44.7523 109.96 44.7523C107.994 44.7523 107.157 44.9133 106.448 46.2987C105.707 47.7485 106.126 63.0199 106.126 65.9517C106.126 67.5304 106.094 69.0447 107.35 69.7535C108.574 70.4301 110.25 70.1401 111.055 69.3024C112.054 68.2715 111.828 66.6606 111.828 65.0496C111.764 63.3099 111.796 61.6023 111.764 59.927ZM111.764 50.0682C112.505 49.9071 115.759 49.9394 116.436 50.1327C119.142 50.9381 119.206 54.7721 116.242 55.5131C115.566 55.6742 112.505 55.7064 111.732 55.5775V50.0682H111.764Z" fill="#333333"/>
<path fill-rule="evenodd" clip-rule="evenodd" d="M58.7013 44.6873C52.2255 46.2338 52.1288 54.9649 55.254 57.1557C57.6059 58.7989 59.5712 58.9277 62.342 60.0554C66.2726 61.6341 64.7261 64.6626 61.762 64.7914C59.0879 64.8881 55.5439 62.0851 53.7719 63.986C52.9987 64.8559 52.451 66.3701 53.2242 67.6588C54.6741 70.1719 61.311 71.0417 64.9194 69.9785C67.2069 69.302 69.591 67.4978 70.2032 65.4358C70.7509 63.6316 71.0731 62.4395 70.6542 60.3131C70.5254 59.5721 70.2354 58.8633 69.881 58.2189C69.43 57.4457 68.7534 56.9302 68.5278 56.5758C63.5663 53.7084 64.3395 54.9649 60.4411 53.1607C58.6691 52.323 59.1846 50.4866 60.7311 49.9389C62.3097 49.3912 64.0495 50.0355 65.3705 50.4222C66.2404 50.5188 66.4014 50.7121 67.368 50.5833C69.7199 49.6811 70.0421 47.297 68.1734 45.7505C66.4014 44.3007 64.2106 44.3652 61.6976 44.1074L58.7013 44.6873Z" fill="#333333"/>
<path fill-rule="evenodd" clip-rule="evenodd" d="M29.2536 46.8456C29.3181 51.1628 29.2536 55.5445 29.2536 59.8617C29.2536 71.1702 28.0938 69.9137 38.7902 69.8815C41.0133 69.8815 42.9786 70.2037 43.6874 68.2062C44.4284 66.2087 43.2363 64.7266 41.3354 64.5978C39.3057 64.4689 37.0826 64.6622 35.0529 64.5655C34.7629 64.0178 34.8918 60.4094 34.9562 59.8295H40.9166C43.5585 59.5717 43.9451 56.2533 42.3342 55.0934C40.7555 53.9658 36.8893 54.9968 34.9562 54.4813V50.0674C36.0194 49.7452 39.8856 50.0674 41.3354 49.9707C43.2685 49.8419 44.2673 47.941 43.3974 46.0401C42.6242 44.3326 40.3044 44.7192 38.1781 44.7192C36.1483 44.7192 33.9897 44.6548 31.96 44.7192C31.0578 44.8159 30.6712 44.9447 30.0913 45.4602C29.4469 46.0079 29.6725 46.2012 29.2536 46.8456Z" fill="#333333"/>
<path fill-rule="evenodd" clip-rule="evenodd" d="M102.292 64.6616L95.5267 64.5972C95.3334 63.9206 95.3656 60.731 95.4945 59.8289L101.551 59.7967C104.032 59.7001 104.516 56.2849 102.872 55.0929C101.745 54.2874 97.2343 54.4485 95.5589 54.6096L95.3978 52.2899C95.3978 51.5489 95.2367 50.5823 95.5589 49.9702C97.4598 49.6802 100.231 50.0991 102.357 49.8413C104.612 49.7769 105.063 45.6207 102.582 44.8797C101.455 44.5253 95.8166 44.7186 94.238 44.7186C90.694 44.7186 89.7918 45.2019 89.8241 48.8425V65.9181C89.8241 67.368 89.9207 68.4312 90.7906 69.2366C91.6927 70.0743 93.1748 69.9132 94.5601 69.9132C96.171 69.9132 101.777 70.1065 102.872 69.7199C104.934 68.9466 105.192 65.1127 102.292 64.6616Z" fill="#333333"/>
<path fill-rule="evenodd" clip-rule="evenodd" d="M71.8455 45.1065C70.7823 45.8153 70.2024 47.6195 71.1367 48.9405C71.9744 50.1325 73.4886 49.9392 75.2606 50.0359H76.7749L76.8393 67.5625C76.936 68.8835 77.6448 69.6567 78.708 69.9467C79.4812 70.2366 80.0933 70.14 80.8666 69.9144C82.3164 69.1734 82.5097 68.4968 82.5097 66.4027V50.0681C84.4106 50.0681 86.9236 50.4225 88.019 49.2304C89.2755 47.9095 88.6956 45.5253 87.0847 44.9776C85.957 44.591 76.4205 44.7199 74.5196 44.7843C73.4886 44.7199 72.7476 44.6877 71.8455 45.1065Z" fill="#333333"/>
<path fill-rule="evenodd" clip-rule="evenodd" d="M13.8857 46.9429L13.918 67.6591C14.1435 68.8512 15.0778 69.6567 16.3665 69.8177L26.2897 69.7855C28.7382 69.56 29.2859 66.4026 27.5462 65.0817C26.483 64.2762 21.6825 64.5018 20.0394 64.5984L19.5561 64.534L19.5239 57.3816C19.6528 55.3518 19.5561 52.871 19.5561 50.7769C19.5561 48.8116 19.8783 46.1375 18.5896 45.0743C17.913 44.6876 17.2042 44.4621 16.2054 44.5265C14.8845 44.8487 14.1435 45.4609 13.8857 46.9429Z" fill="#333333"/>
<path fill-rule="evenodd" clip-rule="evenodd" d="M52.5477 34.764C50.7113 35.2472 50.228 36.7937 49.3904 38.2757C48.005 40.821 44.8476 45.2993 45.5564 47.4901C46.0397 48.9721 47.6506 50.3897 49.7448 49.8098C51.5812 49.2943 52.0322 47.9412 52.9021 46.3625C54.3519 43.785 57.4126 39.3067 56.7683 37.1159C56.3495 35.6016 54.6419 34.2485 52.5477 34.764Z" fill="#333333"/>
<path fill-rule="evenodd" clip-rule="evenodd" d="M133.318 42.4968C133.318 39.8549 131.191 37.7285 128.549 37.7285C125.908 37.7285 123.781 39.8549 123.781 42.4968C123.781 45.1387 125.908 47.2651 128.549 47.2651C131.191 47.2651 133.318 45.1387 133.318 42.4968ZM132.577 42.4968C132.577 44.7198 130.773 46.5241 128.549 46.5241C126.326 46.5241 124.522 44.7198 124.522 42.4968C124.522 40.2738 126.326 38.4695 128.549 38.4695C130.773 38.4695 132.577 40.2738 132.577 42.4968ZM130.064 43.9144C129.935 43.6567 129.838 43.3989 129.742 43.1412H129.774C130.128 43.0123 130.386 42.7868 130.547 42.4646C130.74 42.1424 130.773 41.7558 130.676 41.4014C130.611 41.0792 130.45 40.8215 130.193 40.6282C129.935 40.4026 129.613 40.306 129.258 40.306H127.1H127.068V44.6876H127.809V43.2378H127.841H129.001C129.033 43.2378 129.065 43.2378 129.065 43.27C129.226 43.7211 129.419 44.2044 129.613 44.6554C129.645 44.6876 129.645 44.6876 129.677 44.6876H130.193H130.386C130.257 44.4299 130.16 44.1721 130.064 43.9144ZM127.841 42.4968H127.809V42.4964C127.809 41.9811 127.809 41.4979 127.776 41.047H127.809H129.226C129.419 41.047 129.613 41.0792 129.742 41.2081C129.935 41.4014 129.999 41.6269 129.967 41.8847C129.903 42.2391 129.645 42.4646 129.29 42.4968H129.226H127.841Z" fill="#333333"/>
<path d="M138.183 26.5799C136.54 23.6159 133.737 21.1995 130.193 19.7175L133.48 12.7584C133.641 12.7906 133.802 12.7906 133.963 12.7906C135.832 12.7906 137.346 11.2763 137.346 9.40769C137.346 7.53904 135.832 6.02479 133.963 6.02479C132.094 6.02479 130.58 7.53904 130.58 9.40769C130.58 10.4387 131.031 11.3408 131.74 11.9529L128.389 19.0409C126.52 18.461 124.523 18.171 122.397 18.171C119.465 18.171 116.694 18.7831 114.245 19.8463L114.858 19.5564L108.382 5.83148C109.026 5.21933 109.445 4.34944 109.445 3.3829C109.445 1.51425 107.931 0 106.062 0C104.193 0 102.679 1.51425 102.679 3.3829C102.679 5.25155 104.193 6.7658 106.062 6.7658C106.288 6.7658 106.481 6.73359 106.674 6.70137L113.15 20.3618L113.311 20.2974C110.379 21.7794 108.06 23.9703 106.61 26.5477H61.4077V32.9913H137.41V79.5H6.44362V33.0235H43.9133V26.5799H0V85.9758H143.854V26.5799H138.183Z" fill="#69B32D"/>
</svg>
