<svg width="145" height="86" viewBox="0 0 145 86" fill="none" xmlns="http://www.w3.org/2000/svg">
<path fill-rule="evenodd" clip-rule="evenodd" d="M52.6207 34.7645C51.0926 35.1661 50.5002 36.3018 49.8622 37.5246L49.8622 37.5246C49.7324 37.7734 49.6008 38.0258 49.459 38.2763C49.1823 38.7839 48.835 39.3684 48.462 39.9964L48.4619 39.9965L48.4619 39.9965C46.9644 42.517 45.0515 45.7368 45.6197 47.4907C46.1036 48.9727 47.7168 50.3903 49.8139 49.8104C51.3927 49.3678 51.949 48.3078 52.626 47.0178C52.7375 46.8052 52.8524 46.5864 52.9756 46.363C53.2227 45.9243 53.5166 45.4305 53.8309 44.9023L53.8311 44.9021C55.3635 42.3271 57.3826 38.9343 56.8472 37.1164C56.4277 35.6022 54.7178 34.249 52.6207 34.7645ZM55.3308 57.1561C52.2013 54.9652 52.2981 46.2341 58.783 44.6877L61.7834 44.1077C62.1861 44.149 62.5806 44.182 62.9664 44.2143L62.9664 44.2143C64.9914 44.3837 66.7778 44.5331 68.2682 45.7509C70.1395 47.2973 69.8168 49.6815 67.4617 50.5836C66.8142 50.6698 66.5277 50.6118 66.1482 50.5351C65.9604 50.4971 65.7498 50.4545 65.4614 50.4225C65.3255 50.3828 65.1852 50.3403 65.0411 50.2968C63.7823 49.9161 62.234 49.4478 60.8155 49.9392C59.2669 50.4869 58.7507 52.3234 60.5251 53.161C62.1285 53.9021 62.9427 54.1268 63.6898 54.3329C64.7617 54.6288 65.6953 54.8864 68.6231 56.5761C68.7102 56.7128 68.8644 56.8733 69.0469 57.0634C69.3378 57.3663 69.7006 57.7441 69.9782 58.2193C70.3331 58.8636 70.6234 59.5724 70.7525 60.3134C71.1719 62.4398 70.8493 63.6319 70.3008 65.4361C69.6878 67.4981 67.3003 69.3023 65.0097 69.9789C61.3962 71.0421 54.7501 70.1722 53.2983 67.6592C52.524 66.3704 53.0724 64.8562 53.8467 63.9863C54.932 62.8237 56.6811 63.4207 58.4887 64.0377C59.6365 64.4295 60.8079 64.8293 61.8479 64.7918C64.8161 64.6629 66.3647 61.6344 62.4286 60.0557C61.4606 59.6623 60.5907 59.3904 59.7684 59.1334L59.7683 59.1334L59.7682 59.1334L59.7681 59.1334C58.2335 58.6538 56.8642 58.2259 55.3308 57.1561ZM116.877 65.9862C114.992 63.5993 112.201 60.0675 111.92 59.9269C111.933 60.5981 111.935 61.2744 111.938 61.956V61.9566C111.942 62.976 111.946 64.007 111.984 65.0495C111.984 65.3023 111.99 65.5551 111.995 65.8057C112.025 67.1518 112.053 68.4332 111.21 69.3023C110.403 70.14 108.726 70.43 107.5 69.7534C106.272 69.0619 106.273 67.6038 106.274 66.0672L106.274 65.9517C106.274 65.3797 106.258 64.3381 106.238 63.0211L106.238 63.0195V63.0194C106.154 57.5852 105.999 47.4655 106.596 46.2986C107.306 44.9132 108.145 44.7522 110.113 44.7522C110.582 44.7522 111.112 44.744 111.677 44.7354C114.3 44.6952 117.703 44.643 119.534 45.3321C125.212 47.4585 125.793 55.1586 121.921 58.1227C121.405 58.5093 120.889 58.8315 120.308 59.0892C120.067 59.1946 119.755 59.293 119.455 59.3876C119.113 59.4954 118.787 59.5984 118.598 59.7013L120.986 62.2788C121.193 62.5235 121.541 62.8783 121.94 63.2853C122.906 64.271 124.173 65.5629 124.47 66.3383C125.309 68.6258 123.309 70.2689 121.276 70.0756C120.043 69.9636 119.297 69.0256 118.699 68.2742C118.609 68.1604 118.522 68.0509 118.437 67.9492C118.164 67.6153 117.584 66.8812 116.877 65.9862ZM116.598 50.1326C115.92 49.9393 112.662 49.907 111.92 50.0681H111.888V55.5774C112.662 55.7063 115.727 55.6741 116.404 55.513C119.372 54.772 119.308 50.938 116.598 50.1326ZM29.309 55.5356V55.5356V55.5359V55.5361V55.5363V55.5365V55.5368C29.3019 56.9826 29.2947 58.4261 29.2947 59.8624C29.2947 60.981 29.2834 61.9767 29.2732 62.8627C29.2316 66.5151 29.2111 68.3053 30.0955 69.1681C30.9457 69.9975 32.6321 69.9698 35.9397 69.9154L35.9402 69.9154C36.7954 69.9013 37.759 69.8855 38.8445 69.8822C39.1219 69.8822 39.3953 69.8872 39.6627 69.8921C41.5416 69.9265 43.1271 69.9555 43.7485 68.2069C44.4905 66.2094 43.2968 64.7273 41.3933 64.5984C40.3229 64.5306 39.1988 64.5521 38.0775 64.5735H38.0775H38.0775H38.0775H38.0774H38.0774C37.0696 64.5928 36.0641 64.612 35.102 64.5662C34.8117 64.0185 34.9407 60.4101 35.0052 59.8302H40.9739C43.6194 59.5724 44.0066 56.254 42.3934 55.0941C41.4688 54.4346 39.7607 54.5135 38.1145 54.5895C36.946 54.6435 35.8088 54.696 35.0052 54.482V50.0681C35.6617 49.8695 37.3852 49.9158 38.9506 49.9578C39.9242 49.984 40.8366 50.0085 41.3933 49.9714C43.329 49.8426 44.3292 47.9417 43.4581 46.0408C42.8052 44.6009 41.051 44.6501 39.2404 44.701L39.2403 44.701C38.9038 44.7104 38.5653 44.7199 38.2315 44.7199C37.5587 44.7199 36.8718 44.7128 36.18 44.7057H36.18H36.1799H36.1799H36.1799H36.1798C34.7819 44.6914 33.3645 44.6768 32.0048 44.7199C31.1014 44.8165 30.7143 44.9454 30.1336 45.4609C29.7428 45.7926 29.6715 45.9943 29.5829 46.2449C29.5252 46.4081 29.4602 46.5921 29.2947 46.8463C29.3378 49.7268 29.3234 52.6359 29.309 55.5355V55.5355V55.5355V55.5356V55.5356ZM95.6593 64.5985L102.434 64.6629C105.338 65.114 105.08 68.9479 103.015 69.7212C102.14 70.0295 98.3925 69.969 96.0925 69.9318C95.5086 69.9224 95.018 69.9145 94.6914 69.9145C94.4988 69.9145 94.3043 69.9176 94.1097 69.9207C92.9031 69.9399 91.6946 69.9592 90.9166 69.2379C90.0456 68.4324 89.9488 67.3692 89.9488 65.9194V48.8438C89.9165 45.2032 90.8199 44.7199 94.3688 44.7199C94.7004 44.7199 95.211 44.7114 95.8212 44.7012L95.8216 44.7012L95.8223 44.7012L95.8226 44.7012C98.1213 44.6629 101.833 44.601 102.725 44.881C105.209 45.622 104.757 49.7781 102.499 49.8426C101.455 49.969 100.255 49.9326 99.0787 49.897C97.8572 49.86 96.6613 49.8237 95.6916 49.9715C95.4475 50.4345 95.4804 51.1004 95.5109 51.718C95.5207 51.9168 95.5303 52.1107 95.5303 52.2912L95.6916 54.6109C97.3692 54.4498 101.886 54.2887 103.015 55.0941C104.661 56.2862 104.177 59.7013 101.692 59.798L95.627 59.8302C95.498 60.7323 95.4657 63.9219 95.6593 64.5985ZM71.9461 45.1065C70.8815 45.8153 70.3007 47.6195 71.2363 48.9405C71.9346 49.9327 73.1022 49.9651 74.4973 50.0038L74.4974 50.0038L74.4974 50.0038L74.4975 50.0038C74.7784 50.0116 75.0686 50.0197 75.366 50.0359H76.8823L76.9469 67.5625C77.0436 68.8835 77.7534 69.6567 78.8181 69.9467C79.5924 70.2366 80.2054 70.14 80.9797 69.9145C82.4315 69.1734 82.6251 68.4969 82.6251 66.4027V50.0681C82.9722 50.0681 83.3397 50.0799 83.7153 50.0919C85.3992 50.1459 87.2451 50.2051 88.1421 49.2304C89.4003 47.9095 88.8196 45.5254 87.2064 44.9777C86.0772 44.591 76.5274 44.7199 74.6239 44.7843C73.5915 44.7199 72.8495 44.6877 71.9461 45.1065ZM13.9376 67.6592L13.9053 46.9429C14.1634 45.4609 14.9055 44.8488 16.2282 44.5266C17.2284 44.4621 17.9382 44.6877 18.6157 45.0743C19.6967 45.9649 19.6458 47.9858 19.6008 49.7736V49.7736V49.7736C19.5921 50.1201 19.5836 50.4578 19.5836 50.7769C19.5836 51.3934 19.592 52.0434 19.6005 52.7055V52.7055V52.7056C19.621 54.2926 19.6424 55.9494 19.5513 57.3816L19.5836 64.534L20.0675 64.5984C21.7129 64.5018 26.5201 64.2763 27.5847 65.0817C29.3269 66.4026 28.7785 69.56 26.3265 69.7856L16.3895 69.8178C15.099 69.6567 14.1634 68.8512 13.9376 67.6592ZM128.729 37.7286C131.374 37.7286 133.504 39.855 133.504 42.4968C133.504 45.1387 131.374 47.2651 128.729 47.2651C126.083 47.2651 123.954 45.1387 123.954 42.4968C123.954 39.855 126.083 37.7286 128.729 37.7286ZM128.729 46.5241C130.955 46.5241 132.762 44.7199 132.762 42.4968C132.762 40.2738 130.955 38.4696 128.729 38.4696C126.503 38.4696 124.696 40.2738 124.696 42.4968C124.696 44.7199 126.503 46.5241 128.729 46.5241ZM129.922 43.1412C130.019 43.399 130.116 43.6567 130.245 43.9145C130.342 44.1722 130.439 44.43 130.568 44.6877H130.374H129.858C129.826 44.6877 129.826 44.6877 129.793 44.6555C129.6 44.2044 129.406 43.7212 129.245 43.2701C129.245 43.2537 129.237 43.2456 129.224 43.2417C129.212 43.2379 129.196 43.2379 129.18 43.2379H128.019H127.987V44.6877H127.245V40.306H127.277H129.439C129.793 40.306 130.116 40.4027 130.374 40.6282C130.632 40.8215 130.794 41.0792 130.858 41.4015C130.955 41.7558 130.923 42.1424 130.729 42.4647C130.568 42.7868 130.31 43.0124 129.955 43.1412H129.922ZM127.987 42.4968H128.019H129.406H129.471C129.826 42.4647 130.084 42.2391 130.148 41.8847C130.181 41.627 130.116 41.4015 129.922 41.2081C129.793 41.0793 129.6 41.0471 129.406 41.0471H127.987H127.954C127.987 41.4979 127.987 41.9809 127.987 42.4961V42.4968Z" fill="black"/>
<path d="M138.375 26.5799C136.73 23.6159 133.923 21.1995 130.374 19.7175L133.665 12.7584C133.826 12.7906 133.988 12.7906 134.149 12.7906C136.02 12.7906 137.536 11.2763 137.536 9.40769C137.536 7.53904 136.02 6.02479 134.149 6.02479C132.278 6.02479 130.761 7.53904 130.761 9.40769C130.761 10.4387 131.213 11.3408 131.923 11.9529L128.567 19.0409C126.696 18.461 124.696 18.171 122.567 18.171C119.631 18.171 116.856 18.7831 114.404 19.8463L115.017 19.5564L108.532 5.83148C109.177 5.21933 109.597 4.34944 109.597 3.3829C109.597 1.51425 108.081 0 106.209 0C104.338 0 102.822 1.51425 102.822 3.3829C102.822 5.25155 104.338 6.7658 106.209 6.7658C106.435 6.7658 106.629 6.73359 106.822 6.70137L113.307 20.3618L113.468 20.2974C110.532 21.7794 108.21 23.9703 106.758 26.5477H61.493V32.9913H137.601V79.5H6.45257V33.0235H43.9743V26.5799H0V85.9758H144.054V26.5799H138.375Z" fill="#69B32D"/>
</svg>
