<svg width="16" height="28" viewBox="0 0 16 28" fill="none" xmlns="http://www.w3.org/2000/svg">
<path d="M8 0.152588C3.58824 0.152588 0 3.71393 0 8.11874C0 8.69278 0.0588235 9.2551 0.176471 9.79398C0.258824 10.204 0.376471 10.5906 0.529412 10.9772L0.705882 11.3989V11.4106L7.02353 26.5112C7.37647 27.3664 8.6 27.3664 8.95294 26.5112L15.2824 11.4224L15.4824 10.942C15.6235 10.5672 15.7412 10.1923 15.8235 9.79398C15.9412 9.2551 16 8.69278 16 8.11874C16 3.71393 12.4235 0.152588 8 0.152588ZM8 12.6993C5.42353 12.6993 3.34118 10.6257 3.34118 8.06017C3.34118 5.4946 5.42353 3.42106 8 3.42106C10.5765 3.42106 12.6588 5.4946 12.6588 8.06017C12.6588 10.6257 10.5765 12.6993 8 12.6993Z" fill="white"/>
</svg>
