<svg width="194" height="116" viewBox="0 0 194 116" fill="none" xmlns="http://www.w3.org/2000/svg">
<path fill-rule="evenodd" clip-rule="evenodd" d="M70.5196 46.5895C68.4717 47.1277 67.6777 48.6497 66.8228 50.2885C66.6489 50.6219 66.4724 50.9601 66.2824 51.2958C65.9116 51.9762 65.4462 52.7596 64.9462 53.6011C62.9394 56.979 60.3757 61.2941 61.1372 63.6445C61.7858 65.6306 63.9476 67.5304 66.758 66.7532C68.8739 66.1601 69.6194 64.7396 70.5267 63.0108C70.6762 62.7259 70.8301 62.4326 70.9952 62.1333C71.3265 61.5453 71.7203 60.8834 72.1417 60.1754C74.1953 56.7246 76.9012 52.1777 76.1837 49.7415C75.6216 47.7121 73.33 45.8987 70.5196 46.5895ZM74.1516 76.5976C69.9576 73.6615 70.0873 61.9605 78.778 59.888L82.799 59.1108C83.3388 59.1661 83.8674 59.2104 84.3845 59.2536C87.0982 59.4806 89.4922 59.6809 91.4897 61.3129C93.9974 63.3854 93.565 66.5805 90.4087 67.7894C89.5411 67.905 89.1571 67.8273 88.6485 67.7244C88.3968 67.6735 88.1146 67.6164 87.7281 67.5736C87.5459 67.5203 87.3579 67.4635 87.1648 67.405C85.4779 66.8949 83.4029 66.2673 81.5019 66.9259C79.4265 67.6599 78.7347 70.121 81.1128 71.2436C83.2615 72.2367 84.3527 72.5378 85.3539 72.8142C86.7903 73.2106 88.0415 73.5559 91.9653 75.8204C92.082 76.0035 92.2886 76.2187 92.5332 76.4734C92.923 76.8793 93.4093 77.3857 93.7812 78.0224C94.2569 78.886 94.646 79.8359 94.8189 80.8289C95.381 83.6786 94.9486 85.2762 94.2136 87.6941C93.3921 90.4574 90.1926 92.8754 87.1227 93.7821C82.2802 95.2069 73.3733 94.0411 71.4277 90.6733C70.39 88.9462 71.125 86.9169 72.1627 85.7511C73.6172 84.1931 75.9612 84.9931 78.3837 85.82C79.9219 86.345 81.4917 86.8809 82.8855 86.8306C86.8633 86.6579 88.9387 82.5992 83.6638 80.4835C82.3663 79.9562 81.2004 79.5919 80.0982 79.2474C78.0416 78.6047 76.2066 78.0313 74.1516 76.5976ZM156.633 88.4313C154.106 85.2325 150.367 80.4992 149.989 80.3108C150.007 81.2106 150.01 82.1173 150.014 83.031V83.0322C150.019 84.3979 150.024 85.7792 150.076 87.1759C150.076 87.5143 150.083 87.8526 150.091 88.1879L150.091 88.1893C150.13 89.9932 150.168 91.7105 149.038 92.8753C147.957 93.9979 145.709 94.3865 144.066 93.4798C142.421 92.5531 142.422 90.5991 142.423 88.5398L142.423 88.3849C142.423 87.6181 142.401 86.2213 142.374 84.4554C142.263 77.1728 142.055 63.6106 142.855 62.0469C143.806 60.1902 144.931 59.9744 147.568 59.9744C148.197 59.9744 148.906 59.9635 149.664 59.9519C153.179 59.898 157.739 59.8281 160.193 60.7515C167.803 63.6012 168.581 73.9206 163.393 77.8929C162.701 78.411 162.009 78.8428 161.231 79.1882C160.908 79.3294 160.49 79.4613 160.088 79.5881C159.63 79.7326 159.193 79.8706 158.939 80.0085L162.139 83.4627C162.417 83.7907 162.883 84.2662 163.418 84.8115C164.713 86.1326 166.411 87.8639 166.809 88.903C167.933 91.9686 165.252 94.1706 162.528 93.9116C160.876 93.7616 159.876 92.5044 159.075 91.4975C158.954 91.345 158.837 91.1982 158.723 91.0619C158.358 90.6144 157.581 89.6308 156.633 88.4313ZM156.259 67.1849C155.351 66.9259 150.984 66.8827 149.989 67.0986H149.946V74.4819C150.984 74.6546 155.091 74.6114 155.999 74.3955C159.977 73.4024 159.891 68.2644 156.259 67.1849ZM39.2785 74.4259V74.4261V74.4265V74.4268V74.4272V74.4275V74.4279C39.2689 76.3654 39.2593 78.2998 39.2593 80.2246C39.2593 81.7237 39.2441 83.0581 39.2305 84.2455C39.1746 89.1403 39.1473 91.5394 40.3324 92.6956C41.4718 93.8072 43.7318 93.77 48.1645 93.6972L48.1651 93.6971H48.1652H48.1652H48.1653C49.3114 93.6783 50.6027 93.6571 52.0575 93.6527C52.4292 93.6527 52.7956 93.6594 53.154 93.666C55.6719 93.712 57.7968 93.7509 58.6295 91.4075C59.6239 88.7305 58.0242 86.7443 55.4732 86.5716C54.0387 86.4807 52.5323 86.5095 51.0297 86.5382H51.0295H51.0295H51.0294H51.0293H51.0292H51.0291C49.6786 86.564 48.3312 86.5898 47.042 86.5285C46.6528 85.7945 46.8258 80.9586 46.9122 80.1814H54.9111C58.4565 79.836 58.9754 75.3888 56.8135 73.8344C55.5744 72.9505 53.2852 73.0563 51.0791 73.1581C49.5132 73.2304 47.9892 73.3008 46.9122 73.014V67.0988C47.792 66.8326 50.1017 66.8946 52.1997 66.951C53.5044 66.9861 54.7272 67.0189 55.4732 66.9692C58.0674 66.7965 59.4078 64.2491 58.2404 61.7016C57.3653 59.7719 55.0145 59.8379 52.588 59.906C52.1369 59.9186 51.6832 59.9314 51.236 59.9314C50.3343 59.9314 49.4137 59.9219 48.4867 59.9124C46.6132 59.8931 44.7135 59.8736 42.8912 59.9314C41.6806 60.0609 41.1617 60.2336 40.3835 60.9244C39.8598 61.3689 39.7642 61.6393 39.6455 61.9751C39.5682 62.1939 39.481 62.4405 39.2593 62.7811C39.317 66.6411 39.2977 70.5396 39.2785 74.4252V74.4254V74.4255V74.4257V74.4259ZM128.198 86.5715L137.278 86.6579C141.169 87.2624 140.823 92.4005 138.056 93.4367C136.883 93.8499 131.861 93.7688 128.778 93.719L128.778 93.719C127.996 93.7064 127.338 93.6958 126.901 93.6958C126.643 93.6958 126.382 93.6999 126.121 93.7041C124.504 93.7299 122.884 93.7558 121.842 92.7891C120.675 91.7096 120.545 90.2848 120.545 88.3418V65.4579C120.502 60.5789 121.712 59.9313 126.468 59.9313C126.913 59.9313 127.598 59.9199 128.417 59.9062C131.497 59.8549 136.471 59.7719 137.667 60.1472C140.996 61.1402 140.391 66.7101 137.364 66.7964C135.964 66.9659 134.356 66.9171 132.78 66.8694C131.143 66.8197 129.541 66.7712 128.241 66.9691C127.914 67.5897 127.958 68.482 127.999 69.3097V69.3099V69.3101V69.3103V69.3104C128.012 69.5767 128.025 69.8362 128.025 70.0779L128.241 73.1866C130.489 72.9708 136.543 72.7549 138.056 73.8343C140.261 75.4319 139.612 80.0086 136.283 80.1382L128.155 80.1813C127.982 81.3903 127.938 85.6648 128.198 86.5715ZM96.4185 60.4494C94.9917 61.3993 94.2134 63.8173 95.4673 65.5875C96.403 66.9173 97.9678 66.9607 99.8375 67.0126C100.214 67.023 100.603 67.0338 101.002 67.0555H103.034L103.12 90.5439C103.25 92.3142 104.201 93.3504 105.628 93.739C106.666 94.1276 107.487 93.9981 108.525 93.6958C110.471 92.7027 110.73 91.796 110.73 88.9895V67.0987C111.195 67.0987 111.688 67.1145 112.191 67.1307C114.448 67.203 116.922 67.2824 118.124 65.9761C119.81 64.2059 119.031 61.0107 116.87 60.2767C115.356 59.7586 102.558 59.9313 100.007 60.0177C98.6236 59.9313 97.6292 59.8881 96.4185 60.4494ZM18.6784 90.6734L18.6351 62.9105C18.981 60.9244 19.9755 60.104 21.7482 59.6722C23.0886 59.5859 24.0398 59.8881 24.9477 60.4062C26.3965 61.5998 26.3283 64.3081 26.2679 66.704C26.2563 67.1684 26.2449 67.621 26.2449 68.0486C26.2449 68.8748 26.2561 69.7459 26.2676 70.6333V70.6333V70.6333C26.295 72.7602 26.3237 74.9805 26.2016 76.8999L26.2449 86.4852L26.8934 86.5715C29.0985 86.442 35.5408 86.1398 36.9677 87.2192C39.3025 88.9895 38.5674 93.2208 35.2814 93.5231L21.9644 93.5662C20.2349 93.3504 18.981 92.2709 18.6784 90.6734ZM172.516 50.5618C176.061 50.5618 178.915 53.4115 178.915 56.952C178.915 60.4926 176.061 63.3423 172.516 63.3423C168.971 63.3423 166.117 60.4926 166.117 56.952C166.117 53.4115 168.971 50.5618 172.516 50.5618ZM172.516 62.3492C175.499 62.3492 177.921 59.9313 177.921 56.952C177.921 53.9728 175.499 51.5549 172.516 51.5549C169.533 51.5549 167.111 53.9728 167.111 56.952C167.111 59.9313 169.533 62.3492 172.516 62.3492ZM174.116 57.8155C174.245 58.1609 174.375 58.5063 174.548 58.8518C174.678 59.1972 174.807 59.5426 174.98 59.888H174.721H174.029C173.986 59.888 173.986 59.888 173.943 59.8448C173.683 59.2403 173.424 58.5927 173.208 57.9882C173.208 57.945 173.164 57.945 173.121 57.945H171.565H171.521V59.888H170.527V54.0159H170.57H173.467C173.943 54.0159 174.375 54.1454 174.721 54.4477C175.067 54.7067 175.283 55.0522 175.37 55.4839C175.499 55.9589 175.456 56.477 175.197 56.9088C174.98 57.3406 174.634 57.6428 174.159 57.8155H174.116ZM171.521 56.952H171.565H173.424H173.51C173.986 56.9088 174.332 56.6065 174.418 56.1316C174.462 55.7862 174.375 55.4839 174.116 55.2249C173.943 55.0522 173.683 55.009 173.424 55.009H171.521H171.478C171.521 55.6133 171.521 56.2608 171.521 56.9515V56.952Z" fill="white"/>
<path d="M185.444 35.6211C183.239 31.6488 179.477 28.4105 174.721 26.4244L179.131 17.0981C179.347 17.1413 179.564 17.1413 179.78 17.1413C182.288 17.1413 184.32 15.112 184.32 12.6077C184.32 10.1034 182.288 8.07412 179.78 8.07412C177.272 8.07412 175.24 10.1034 175.24 12.6077C175.24 13.9894 175.845 15.1983 176.796 16.0187L172.3 25.5177C169.792 24.7405 167.111 24.3519 164.258 24.3519C160.323 24.3519 156.605 25.1723 153.319 26.5971L154.14 26.2085L145.45 7.81506C146.314 6.99469 146.876 5.82891 146.876 4.5336C146.876 2.02932 144.844 0 142.336 0C139.829 0 137.797 2.02932 137.797 4.5336C137.797 7.03787 139.829 9.06719 142.336 9.06719C142.639 9.06719 142.899 9.02402 143.158 8.98085L151.849 27.2879L152.065 27.2016C148.13 29.1877 145.017 32.1238 143.072 35.5779H82.4099V44.2134H184.406V106.542H8.64742V44.2565H58.9321V35.6211H0V115.221H193.054V35.6211H185.444Z" fill="white"/>
</svg>
