<svg width="258" height="134" viewBox="0 0 258 134" fill="none" xmlns="http://www.w3.org/2000/svg">
<path d="M0.608667 0.604022H51.0964C58.0018 0.62792 64.7153 2.8779 70.2405 7.01995C75.7657 11.162 79.8079 16.9753 81.7671 23.5969C83.7263 30.2185 83.4981 37.2954 81.1163 43.777C78.7346 50.2586 74.3262 55.7994 68.5456 59.5768C63.2558 63.0557 57.0404 64.86 50.7101 64.7544C34.0079 64.7544 17.3057 64.7544 0.603516 64.7544V0.604022H0.608667ZM16.5793 16.6828C16.5793 27.378 16.5793 38.0697 16.5793 48.758H50.7307C53.0204 48.7736 55.288 48.3085 57.3868 47.3928C62.9559 44.9972 66.9383 39.2323 66.9949 33.1377C67.0703 30.5775 66.5288 28.0366 65.4161 25.7296C64.3034 23.4226 62.6521 21.417 60.6015 19.8821C57.9756 17.8659 54.7724 16.7446 51.4622 16.6828H16.5793ZM92.0224 1.1089C94.9899 0.00126493 98.4004 0.938897 100.631 3.12327C118.147 15.8311 135.681 28.5114 153.231 41.1643C153.231 27.6425 153.231 14.1224 153.231 0.604022H169.202C169.202 18.972 169.202 37.3468 169.202 55.7284C169.233 57.614 168.96 59.6026 167.857 61.1894C166.944 62.5588 165.631 63.6144 164.098 64.2134C162.565 64.8123 160.884 64.9256 159.285 64.538C157.502 64.1929 156.147 62.9564 154.777 61.8694C137.436 49.3299 120.091 36.7938 102.743 24.2612C102.743 37.7658 102.743 51.2687 102.743 64.7699H86.7728V8.67176C86.764 7.02013 87.267 5.40631 88.2125 4.0521C89.1581 2.69788 90.4998 1.66972 92.0534 1.1089H92.0224ZM189.01 1.05738C191.519 0.542202 194.1 0.59887 196.656 0.604022C212.087 0.604022 227.513 0.604022 242.935 0.604022C245.108 0.53347 247.223 1.31131 248.833 2.77293C249.826 3.71815 250.563 4.89971 250.974 6.20704C251.386 7.51438 251.46 8.90478 251.188 10.2482C250.833 11.9787 249.911 13.5414 248.569 14.6891C247.226 15.8369 245.539 16.504 243.774 16.585C227.206 16.585 210.636 16.585 194.064 16.585C192.395 16.4562 190.52 17.0538 189.68 18.6045C189.219 19.3576 189.023 20.2432 189.123 21.1206C189.223 21.998 189.613 22.8168 190.231 23.4472C191.164 24.5445 192.679 24.8124 194.049 24.7815C208.34 24.7506 222.631 24.8072 236.912 24.7454C241.05 25.0324 244.996 26.5965 248.207 29.2217C251.418 31.8469 253.735 35.404 254.839 39.402C255.942 43.4 255.778 47.642 254.368 51.5426C252.958 55.4433 250.373 58.8103 246.968 61.1791C243.704 63.4559 239.83 64.6981 235.851 64.7441C217.531 64.7441 199.213 64.7441 180.896 64.7441C179.404 64.7129 177.951 64.2612 176.705 63.4409C175.458 62.6207 174.468 61.4653 173.849 60.1075C173.279 58.8747 173.031 57.5172 173.131 56.1626C173.23 54.808 173.672 53.5008 174.415 52.3642C175.159 51.2275 176.179 50.2987 177.381 49.6652C178.582 49.0316 179.925 48.7141 181.283 48.7426H235.454C236.051 48.7488 236.642 48.6239 237.185 48.3767C237.728 48.1295 238.21 47.7661 238.597 47.312C238.985 46.8579 239.267 46.3244 239.426 45.749C239.584 45.1737 239.614 44.5705 239.514 43.9823C239.33 43.0457 238.827 42.2019 238.09 41.5949C237.354 40.9879 236.429 40.6555 235.475 40.6542H192.565C187.319 40.5396 182.333 38.3476 178.702 34.5596C176.218 31.9826 174.47 28.7876 173.639 25.3065C172.808 21.8254 172.924 18.1853 173.976 14.7644C175.028 11.3434 176.976 8.26653 179.619 5.85337C182.262 3.44022 185.503 1.77887 189.005 1.04193L189.01 1.05738ZM39.577 86.1756C39.577 84.1149 42.3281 83.2855 43.7397 84.5425C44.0389 84.8511 44.2655 85.2226 44.4028 85.6299C44.54 86.0373 44.5845 86.4701 44.533 86.8969C44.533 91.142 44.533 95.3837 44.533 99.6219H51.9671C51.9671 95.0213 51.9104 90.4156 52.0032 85.8202C52.2814 83.6564 55.7022 83.3164 56.6037 85.1814C56.8261 85.7332 56.9144 86.33 56.8613 86.9227C56.8613 91.1317 56.8613 95.3459 56.8613 99.5549C58.1029 99.5137 59.4372 100.256 59.53 101.616C59.664 103.236 59.6536 104.865 59.499 106.484C59.2724 108.545 56.207 109.06 55.0736 107.468C54.3936 106.463 54.6666 105.186 54.6048 104.052C50.3082 104.052 46.0116 104.089 41.7253 104.052C40.3085 104.052 39.4585 102.564 39.5667 101.27C39.5976 96.2526 39.5255 91.2296 39.6027 86.2117L39.577 86.1756ZM61.1219 85.779C61.4722 83.3628 65.6143 83.3731 65.9337 85.779C66.0264 88.9319 65.9337 92.0848 65.9337 95.2377C68.6126 91.8014 71.2194 88.3085 73.9035 84.8774C74.8411 83.6307 77.0307 83.61 77.9219 84.9238C78.4371 85.7223 78.3444 86.7372 78.3753 87.6542C78.3341 92.4145 78.4165 97.1851 78.3341 101.945C78.3341 103.97 75.6551 104.882 74.2126 103.666C73.4605 103.099 73.3626 102.121 73.3729 101.24C73.3729 98.5091 73.3729 95.7769 73.3729 93.043C70.6888 96.505 68.0459 100.003 65.3 103.414C64.0223 104.985 60.9519 104.073 61.06 101.94C61.06 96.5462 61.0034 91.1471 61.091 85.7584L61.1219 85.779ZM88.818 86.1859C89.0344 84.9495 90.0132 83.8419 91.363 83.9861C92.7025 83.847 93.7122 84.9392 93.9389 86.1859C95.9996 85.9335 98.3025 86.3044 99.8996 87.7779C103.609 90.9153 103.506 97.4478 99.6214 100.415C98.823 101.023 97.9066 101.457 96.9308 101.69C95.955 101.924 94.9413 101.951 93.9544 101.77C93.9428 102.157 93.8429 102.536 93.6624 102.878C93.4818 103.221 93.2255 103.517 92.9128 103.746C92.6002 103.974 92.2395 104.127 91.8584 104.195C91.4773 104.262 91.0858 104.242 90.7139 104.135C89.5805 103.934 89.0086 102.811 88.8695 101.77C87.7388 101.994 86.5706 101.941 85.4651 101.614C84.3596 101.288 83.3498 100.698 82.5225 99.8949C79.0862 96.6235 79.4314 90.3074 83.2386 87.4636C84.7841 86.2478 86.8449 85.985 88.7974 86.2014L88.818 86.1859ZM86.51 91.4614C86.1269 91.7757 85.8198 92.1726 85.6117 92.6223C85.4035 93.072 85.2998 93.563 85.3083 94.0585C85.3167 94.554 85.437 95.0411 85.6603 95.4835C85.8836 95.9259 86.204 96.3121 86.5976 96.6132C87.2725 97.1593 88.1431 97.1851 88.9932 97.2366C89.0344 95.0574 88.9932 92.8833 88.9932 90.7092C88.1225 90.7608 87.1643 90.7814 86.4997 91.4408L86.51 91.4614ZM93.7225 90.7453C93.7225 92.9142 93.6813 95.0883 93.7225 97.2572C95.2681 97.3757 96.9733 96.4793 97.3288 94.8565C98.0089 92.6824 95.9481 90.4001 93.7225 90.735V90.7453ZM127.534 84.0119C130.342 83.4452 133.464 83.9604 135.679 85.8717C140.316 89.6171 140.599 97.3396 136.539 101.605C133.118 105.212 126.663 105.32 123.145 101.811C118.977 97.7466 119.023 90.1425 123.325 86.1963C124.507 85.0959 125.968 84.3405 127.549 84.0119H127.534ZM128.363 88.6485C124.963 89.921 124.505 94.568 125.932 97.4684C127.148 100.173 131.331 100.56 133.046 98.1691C133.796 97.0362 134.217 95.718 134.264 94.3603C134.31 93.0027 133.98 91.6588 133.309 90.4774C132.82 89.6506 132.062 89.0173 131.161 88.6842C130.26 88.3511 129.272 88.3385 128.363 88.6485ZM163.396 84.831C164.74 83.2855 167.558 83.4915 168.635 85.2535C169.125 86.2254 169.532 87.2371 169.851 88.2776C171.34 92.399 172.808 96.5205 174.297 100.606C174.472 100.982 174.569 101.389 174.583 101.803C174.597 102.217 174.528 102.63 174.379 103.017C173.601 104.65 170.85 104.645 170.088 103.017C169.728 102.129 169.422 101.221 169.171 100.297H162.474C162.219 101.316 161.874 102.311 161.443 103.269C160.547 104.593 158.352 104.557 157.409 103.269C156.76 102.507 156.935 101.399 157.275 100.549C158.965 95.9641 160.657 91.3807 162.35 86.799C162.572 86.0862 162.921 85.4194 163.38 84.831H163.396ZM165.791 90.1889C165.142 92.0023 164.534 93.8415 163.978 95.6859H167.661C167.023 93.8622 166.631 91.956 165.791 90.1992V90.1889ZM201.73 86.0314C201.828 84.0428 204.492 83.3782 205.852 84.5322C206.115 84.796 206.32 85.112 206.454 85.4598C206.588 85.8075 206.648 86.1795 206.63 86.5517C206.63 89.4471 206.63 92.3424 206.63 95.2377C209.278 91.786 211.9 88.3188 214.569 84.8929C215.759 83.2185 219.025 83.9501 218.937 86.1756C218.958 91.4408 218.958 96.7077 218.937 101.976C219.051 103.522 217.284 104.552 215.903 104.171C215.391 104.072 214.929 103.799 214.595 103.398C214.262 102.997 214.078 102.493 214.074 101.971C214.033 99.0037 214.074 96.0362 214.074 93.0739C211.421 96.4432 208.835 99.864 206.171 103.228C205.936 103.534 205.635 103.783 205.291 103.957C204.947 104.131 204.568 104.226 204.182 104.234C203.796 104.242 203.413 104.163 203.062 104.003C202.711 103.843 202.4 103.607 202.153 103.311C201.514 102.363 201.679 101.173 201.638 100.096C201.705 95.4077 201.55 90.7144 201.71 86.0314H201.73ZM104.418 86.5466C104.384 86.2547 104.411 85.959 104.495 85.6776C104.579 85.3961 104.72 85.1348 104.908 84.9093C105.096 84.6838 105.329 84.499 105.591 84.366C105.853 84.2329 106.139 84.1546 106.432 84.1355C108.312 84.0428 110.198 84.0943 112.073 84.1355C113.145 84.1105 114.208 84.3393 115.174 84.8033C116.141 85.2672 116.984 85.9531 117.635 86.8051C118.286 87.657 118.727 88.6508 118.92 89.7054C119.114 90.7599 119.056 91.8453 118.75 92.873C118.399 94.1267 117.689 95.2502 116.706 96.1044C115.724 96.9587 114.512 97.5063 113.222 97.6796C111.926 97.7723 110.626 97.7981 109.327 97.7569C109.224 99.4313 109.549 101.167 109.152 102.811C108.41 104.933 104.742 104.619 104.474 102.342C104.382 97.0872 104.474 91.8323 104.433 86.5723L104.418 86.5466ZM109.312 88.6073C109.312 90.1528 109.312 91.7448 109.312 93.3109C110.528 93.2285 111.934 93.584 112.985 92.7957C114.356 91.7654 114.046 89.2461 112.388 88.7103C111.362 88.5849 110.328 88.5504 109.296 88.6073H109.312ZM142.17 84.6971C143.201 83.8625 144.653 84.1355 145.895 84.0892C148.126 84.1664 150.64 83.7028 152.561 85.1195C155.137 86.8557 155.333 91.0184 152.968 93.0224C153.682 93.3326 154.322 93.7911 154.845 94.3676C155.369 94.944 155.763 95.6253 156.003 96.3659C156.518 98.6688 155.895 101.374 153.885 102.78C151.701 104.423 148.831 103.939 146.286 104.006C145.066 103.939 143.747 104.238 142.613 103.687C142.196 103.433 141.86 103.065 141.644 102.627C141.428 102.19 141.34 101.699 141.392 101.214C141.361 96.5772 141.392 91.9405 141.392 87.273C141.392 86.3663 141.454 85.3204 142.186 84.6971H142.17ZM146.369 88.597C146.369 89.6068 146.369 90.6165 146.369 91.6263C147.353 91.549 148.564 91.8684 149.336 91.0647C149.852 90.3898 149.774 89.1379 148.893 88.7876C148.1 88.4579 147.204 88.6434 146.369 88.597ZM146.369 96.129C146.369 97.2881 146.369 98.4524 146.369 99.6064C147.569 99.5807 148.811 99.7301 149.975 99.3952C151.14 99.0603 151.521 96.9841 150.31 96.3917C149.063 95.8765 147.667 96.2114 146.364 96.129H146.369ZM178.413 85.2277C180.711 83.7646 183.565 84.151 186.141 84.084C187.274 84.1304 188.567 83.8831 189.541 84.5992C190.206 85.1401 190.304 86.052 190.283 86.8557C190.283 91.889 190.283 96.9326 190.283 101.971C190.309 103.517 188.629 104.547 187.233 104.125C186.73 104.037 186.273 103.777 185.941 103.388C185.609 103 185.423 102.508 185.415 101.997C185.363 100.364 185.415 98.7306 185.415 97.1026C183.709 99.1634 182.04 101.224 180.33 103.285C180.114 103.549 179.846 103.767 179.543 103.924C179.24 104.081 178.908 104.175 178.568 104.2C178.227 104.224 177.885 104.179 177.563 104.067C177.24 103.955 176.944 103.778 176.693 103.548C176.243 103.166 175.957 102.626 175.893 102.04C175.828 101.453 175.991 100.865 176.347 100.395C177.64 98.8491 179.093 97.4736 180.422 95.9692C178.537 95.4541 176.723 94.1661 176.203 92.1827C175.642 89.7304 176.177 86.6754 178.439 85.2277H178.413ZM182.117 88.9422C180.68 89.4831 180.773 91.8375 182.21 92.3372C183.24 92.6051 184.338 92.4145 185.399 92.4609V88.6897C184.302 88.7206 183.168 88.5867 182.117 88.9422ZM19.2582 113.758C20.4844 112.357 23.2766 112.862 23.5909 114.82C23.7352 116.68 23.5909 118.555 23.6527 120.425C25.9453 120.425 28.4594 120.157 30.4737 121.502C33.266 123.202 33.6936 127.169 32.3593 129.915C31.3289 131.975 28.923 133.098 26.6923 133.031C24.6831 132.99 22.6739 133.088 20.6698 132.985C19.3304 132.846 18.6091 131.439 18.6915 130.224C18.6915 125.695 18.6915 121.162 18.6915 116.633C18.6915 115.654 18.6503 114.572 19.2891 113.758H19.2582ZM23.6527 124.814V128.591C24.6016 128.632 25.5523 128.601 26.4965 128.498C27.7484 128.271 28.4851 126.483 27.5269 125.546C26.4965 124.515 24.951 124.897 23.6373 124.814H23.6527ZM35.8677 113.089C36.341 112.92 36.8523 112.889 37.3426 112.999C37.8329 113.108 38.2824 113.353 38.6394 113.707C39.2988 114.377 39.2627 115.381 39.2679 116.257C39.2318 121.136 39.3091 126.015 39.237 130.888C39.1973 131.545 38.8985 132.159 38.4063 132.595C37.914 133.031 37.2687 133.254 36.6121 133.214C35.9556 133.175 35.3417 132.876 34.9055 132.384C34.4693 131.891 34.2465 131.246 34.2861 130.589C34.2861 125.558 34.2861 120.523 34.2861 115.484C34.2451 114.966 34.3785 114.449 34.665 114.015C34.9515 113.581 35.3748 113.255 35.8677 113.089ZM61.8277 113.156C64.9548 112.295 68.6075 112.893 70.9876 115.216C75.1451 118.926 75.3872 126.035 71.8273 130.193C68.6384 134.082 62.1934 134.464 58.4326 131.172C53.796 127.169 53.796 118.972 58.4584 114.99C59.4264 114.142 60.57 113.52 61.8071 113.166L61.8277 113.156ZM63.3165 117.633C59.906 118.874 59.4218 123.547 60.8591 126.442C62.0801 129.173 66.2891 129.533 68.0047 127.117C68.7402 125.99 69.1526 124.683 69.1971 123.337C69.2416 121.992 68.9165 120.661 68.2571 119.487C67.7699 118.66 67.0137 118.024 66.1146 117.687C65.2156 117.349 64.228 117.33 63.3165 117.633ZM97.4988 115.247C97.9728 113.877 99.235 112.671 100.76 112.78C101.503 112.768 102.229 113.003 102.825 113.447C103.42 113.892 103.852 114.521 104.052 115.237C105.84 120.224 107.658 125.19 109.42 130.177C110.085 131.81 108.462 133.557 106.782 133.16C104.835 133.011 104.65 130.749 104.109 129.312H97.4112C97.1311 130.293 96.7869 131.255 96.3809 132.192C95.3505 133.768 92.6304 133.413 92.0018 131.676C91.667 130.646 92.1564 129.616 92.517 128.663C94.1965 124.201 95.8142 119.714 97.4937 115.268L97.4988 115.247ZM100.734 119.142C100.049 120.95 99.5338 122.815 98.9104 124.644C100.137 124.644 101.368 124.644 102.599 124.644C101.955 122.815 101.512 120.919 100.734 119.152V119.142ZM165.132 114.062C165.346 113.747 165.629 113.484 165.959 113.292C166.289 113.101 166.658 112.986 167.038 112.956C167.419 112.926 167.801 112.983 168.157 113.121C168.513 113.259 168.833 113.475 169.094 113.753C170.284 115.165 171.226 116.772 172.339 118.246C173.4 116.798 174.369 115.278 175.466 113.846C175.699 113.574 175.986 113.354 176.309 113.2C176.632 113.045 176.984 112.96 177.341 112.949C177.699 112.937 178.055 113.001 178.387 113.135C178.719 113.269 179.019 113.471 179.268 113.728C179.652 114.174 179.866 114.743 179.872 115.332C179.877 115.921 179.675 116.493 179.299 116.947C177.97 118.792 176.589 120.595 175.26 122.444C176.986 124.691 178.666 126.963 180.345 129.245C180.755 129.757 180.945 130.411 180.872 131.064C180.8 131.716 180.471 132.312 179.959 132.722C179.446 133.132 178.792 133.322 178.14 133.249C177.488 133.177 176.891 132.848 176.481 132.336C175.034 130.481 173.735 128.518 172.334 126.633C170.964 128.493 169.665 130.409 168.269 132.253C167.285 133.66 164.807 133.516 164.029 131.965C163.831 131.458 163.774 130.906 163.865 130.369C163.956 129.832 164.191 129.329 164.545 128.915C166.152 126.741 167.79 124.593 169.377 122.408C168.017 120.538 166.616 118.699 165.255 116.824C164.953 116.434 164.777 115.962 164.749 115.47C164.722 114.977 164.844 114.488 165.101 114.068L165.132 114.062ZM182.499 115.124C182.499 113.336 184.714 112.429 186.182 113.218C187.058 113.614 187.413 114.614 187.439 115.515C187.501 117.236 187.439 118.962 187.439 120.667H194.832C194.904 118.704 194.693 116.726 194.945 114.784C195.198 112.841 198.062 112.311 199.252 113.753C199.891 114.428 199.824 115.412 199.829 116.267C199.798 121.167 199.829 126.056 199.829 130.966C199.829 132.774 197.64 133.732 196.161 132.954C195.249 132.552 194.878 131.522 194.873 130.595C194.822 128.827 194.873 127.055 194.873 125.288C192.426 125.288 189.979 125.288 187.537 125.288C187.475 127.287 187.676 129.307 187.429 131.3C187.182 133.294 184.163 133.876 183.024 132.284C182.473 131.579 182.55 130.646 182.545 129.812C182.581 124.912 182.514 120.023 182.576 115.113L182.499 115.124ZM203.832 113.295C205.301 112.388 207.67 113.295 207.645 115.175C207.737 118.179 207.645 121.187 207.681 124.191C210.293 120.791 212.879 117.37 215.511 113.98C215.738 113.674 216.029 113.422 216.365 113.242C216.701 113.062 217.072 112.958 217.453 112.939C217.833 112.92 218.213 112.985 218.565 113.13C218.917 113.276 219.232 113.497 219.489 113.779C220.091 114.454 220.004 115.417 220.004 116.257C219.973 121.162 220.004 126.071 220.004 130.981C219.995 131.306 219.917 131.626 219.776 131.919C219.635 132.212 219.433 132.472 219.185 132.682C218.937 132.892 218.647 133.047 218.334 133.138C218.021 133.228 217.693 133.252 217.371 133.207C217.077 133.209 216.785 133.153 216.512 133.042C216.24 132.931 215.992 132.766 215.784 132.558C215.576 132.35 215.411 132.102 215.3 131.83C215.189 131.557 215.133 131.265 215.135 130.971C215.104 127.988 215.135 125.005 215.135 122.027C212.441 125.443 209.839 128.931 207.114 132.331C205.893 134.005 202.73 133.201 202.75 131.022C202.678 125.979 202.75 120.925 202.719 115.881C202.678 114.918 202.92 113.784 203.858 113.305L203.832 113.295ZM222.951 115.541C222.935 115.223 222.983 114.906 223.09 114.606C223.198 114.307 223.363 114.032 223.577 113.797C223.791 113.561 224.049 113.37 224.337 113.235C224.624 113.099 224.936 113.021 225.253 113.006C225.57 112.963 225.891 112.985 226.199 113.071C226.506 113.157 226.793 113.305 227.041 113.506C227.289 113.706 227.493 113.956 227.641 114.239C227.789 114.521 227.878 114.831 227.902 115.149C227.969 116.741 227.902 118.338 227.927 119.935C229.957 117.875 231.863 115.68 233.909 113.63C234.208 113.362 234.567 113.171 234.956 113.073C235.346 112.975 235.753 112.974 236.143 113.069C236.533 113.163 236.894 113.352 237.195 113.617C237.496 113.883 237.728 114.218 237.87 114.593C238.324 115.732 237.556 116.85 236.794 117.633C235.191 119.292 233.532 120.883 231.858 122.46C233.919 124.701 236.098 126.813 238.128 129.075C238.952 129.945 239.292 131.45 238.411 132.403C237.412 133.593 235.47 133.459 234.475 132.331C232.234 130.028 230.07 127.643 227.912 125.262C227.912 127.287 227.994 129.317 227.871 131.342C227.618 133.253 224.95 133.861 223.662 132.599C222.966 132.016 222.93 131.053 222.93 130.213C222.93 125.319 222.93 120.425 222.93 115.541H222.951ZM246.288 113.995C247.319 112.666 249.379 112.491 250.745 113.377C251.49 113.967 252.031 114.776 252.29 115.69C253.97 120.372 255.656 125.053 257.349 129.734C257.669 130.569 257.818 131.615 257.19 132.357C256.951 132.647 256.65 132.88 256.309 133.039C255.969 133.199 255.597 133.28 255.221 133.278C254.845 133.275 254.474 133.189 254.135 133.025C253.797 132.861 253.499 132.624 253.264 132.331C252.836 131.375 252.474 130.39 252.182 129.384C249.956 129.384 247.731 129.384 245.485 129.384C245.083 130.461 244.918 131.671 244.202 132.599C243.022 133.773 240.632 133.351 240.08 131.713C239.756 130.986 240.019 130.203 240.276 129.502C241.835 125.305 243.381 121.103 244.913 116.896C245.215 115.868 245.664 114.889 246.247 113.99L246.288 113.995ZM248.828 118.998C248.184 120.883 247.612 122.795 246.968 124.665H250.657C250.054 122.764 249.452 120.868 248.828 118.972V118.998ZM2.9888 113.676C3.6843 113.027 4.69921 113.202 5.56471 113.161C8.19729 113.223 10.835 113.063 13.4624 113.233C15.5592 113.666 15.5232 117.19 13.4624 117.653C11.3708 117.942 9.22765 117.694 7.12056 117.777V120.595C9.8098 120.595 12.87 120.379 15.0698 122.233C17.2696 124.088 17.3984 127.478 16.2444 129.92C15.2141 132.011 12.7669 133.109 10.495 133.011C8.3776 132.97 6.24475 133.067 4.1222 132.964C2.77243 132.861 2.06148 131.419 2.1336 130.213V115.881C2.08818 115.47 2.14427 115.054 2.29696 114.669C2.44965 114.285 2.69428 113.944 3.00941 113.676H2.9888ZM7.11025 125.123V128.601C8.29517 128.554 9.52646 128.766 10.6805 128.421C11.8345 128.075 12.2827 126.107 11.1029 125.469C9.92315 124.83 8.43427 125.18 7.11025 125.123ZM41.6738 117.442C40.0458 116.453 40.4888 113.424 42.4723 113.212C45.9755 113.135 49.4942 113.187 53.0026 113.187C55.0273 113.125 55.7846 116.036 54.3472 117.257C53.2087 118.122 51.6889 117.689 50.37 117.772C50.37 122.182 50.4164 126.597 50.3391 131.007C50.3391 132.521 48.7163 133.516 47.3253 133.16C46.7381 133.053 46.2129 132.728 45.8547 132.251C45.4965 131.773 45.3318 131.178 45.3934 130.584C45.3934 126.319 45.3934 122.053 45.3934 117.792C44.1621 117.71 42.8175 118.045 41.6789 117.447L41.6738 117.442ZM77.1492 113.717C78.1795 112.857 79.622 113.259 80.8533 113.171C83.0583 113.305 85.5672 112.687 87.4682 114.135C90.0751 115.845 90.2966 120.064 87.9165 122.068C88.6773 122.387 89.3531 122.879 89.8899 123.505C90.4266 124.131 90.8094 124.874 91.0075 125.675C91.3301 127.325 91.0232 129.036 90.1472 130.471C89.562 131.286 88.7872 131.947 87.8896 132.396C86.992 132.844 85.9987 133.068 84.9954 133.047C83.1047 133.047 81.2088 133.047 79.3284 133.047C78.5453 133.047 77.6798 133.006 77.0925 132.418C76.3815 131.774 76.3352 130.749 76.3249 129.842V116.278C76.3249 115.376 76.3609 114.31 77.1492 113.702V113.717ZM81.3118 117.581C81.3118 118.611 81.3118 119.601 81.3118 120.616C82.0176 120.616 82.7286 120.616 83.4395 120.569C83.6896 120.512 83.9209 120.392 84.1112 120.22C84.3016 120.049 84.4447 119.831 84.5269 119.588C84.6091 119.345 84.6276 119.085 84.5806 118.833C84.5337 118.581 84.4228 118.345 84.2587 118.148C83.5065 117.344 82.2907 117.669 81.3118 117.581ZM81.3118 125.123V128.596C82.5276 128.539 83.8105 128.791 84.9851 128.384C86.1597 127.977 86.4276 126.004 85.2375 125.381C83.9856 124.928 82.6152 125.18 81.3118 125.123ZM111.888 115.737C113.016 113.898 115.309 113.161 117.364 113.161C119.42 113.161 121.357 113.13 123.351 113.187C123.625 113.209 123.893 113.286 124.137 113.414C124.382 113.542 124.598 113.717 124.773 113.93C124.949 114.143 125.08 114.389 125.158 114.653C125.237 114.917 125.262 115.195 125.231 115.469C125.231 120.749 125.288 126.035 125.195 131.311C124.943 133.665 121.104 133.887 120.46 131.682C120.198 129.848 120.424 127.977 120.337 126.133C118.585 128.24 116.88 130.383 115.092 132.46C114.021 133.65 111.8 133.407 111.1 131.944C110.859 131.509 110.763 131.009 110.825 130.515C110.887 130.022 111.104 129.561 111.445 129.198C112.717 127.777 114.052 126.416 115.345 125.01C113.526 124.495 111.738 123.264 111.182 121.373C110.663 119.475 110.917 117.448 111.888 115.737ZM117.107 117.937C115.685 118.488 115.695 120.734 117.076 121.332C118.106 121.697 119.26 121.507 120.347 121.548V117.787C119.27 117.828 118.152 117.638 117.107 117.937ZM136.297 117.545C134.484 116.7 134.813 113.424 136.89 113.212C140.542 113.156 144.205 113.145 147.858 113.212C149.857 113.599 150.125 116.777 148.28 117.576C147.162 117.952 145.952 117.73 144.798 117.782C144.798 122.202 144.829 126.628 144.798 131.053C144.767 132.99 142.222 133.845 140.784 132.758C139.96 132.192 139.836 131.105 139.826 130.182C139.826 126.04 139.826 121.903 139.826 117.772C138.657 117.71 137.42 117.967 136.307 117.53L136.297 117.545ZM150.908 115.881C150.846 114.727 151.454 113.362 152.726 113.218C154.849 113.104 156.982 113.218 159.115 113.171C159.99 113.212 161.026 112.986 161.716 113.686C163.051 114.84 162.479 117.478 160.645 117.725C159.063 117.88 157.471 117.725 155.889 117.803C155.889 118.771 155.889 119.735 155.889 120.708C157.554 120.791 159.274 120.487 160.902 120.914C162.613 121.697 162.571 124.397 160.856 125.149C159.228 125.499 157.538 125.237 155.889 125.314V128.405C157.636 128.462 159.398 128.261 161.134 128.513C163.282 129.028 163.128 132.635 160.954 132.975C158.445 133.067 155.936 132.975 153.432 133.016C153.103 133.044 152.772 133.002 152.461 132.892C152.15 132.782 151.866 132.608 151.628 132.38C151.389 132.151 151.202 131.875 151.079 131.569C150.956 131.263 150.899 130.934 150.913 130.605C150.913 125.69 150.913 120.775 150.913 115.871L150.908 115.881Z" fill="#F08B21"/>
</svg>
