<svg width="136" height="134" viewBox="0 0 136 134" fill="none" xmlns="http://www.w3.org/2000/svg">
<path d="M42.4488 0.601562H37.0605V87.4369H42.4488V0.601562Z" fill="#397AE3"/>
<path d="M48.3906 0.599997V5.98828L87.5627 5.98828V0.599997L48.3906 0.599997Z" fill="#397AE3"/>
<path d="M93.5004 87.4375H98.8887L98.8887 0.602158H93.5004L93.5004 87.4375Z" fill="#397AE3"/>
<path d="M87.5625 87.4352V82.0469H48.3905V87.4352H87.5625Z" fill="#397AE3"/>
<path d="M8.30832 118.477H11.1541V133.017H8.30832V126.99H2.9065V133.017H0.0390625V118.477H2.9065V124.252H8.30832V118.477Z" fill="#397AE3"/>
<path d="M28.0903 131.118C26.8458 132.381 25.2013 133.174 23.4376 133.359C21.6739 133.545 19.9006 133.112 18.4205 132.135C16.9404 131.158 15.8454 129.698 15.3226 128.003C14.7998 126.308 14.8816 124.485 15.554 122.844C16.2265 121.203 17.4478 119.846 19.0094 119.006C20.571 118.166 22.376 117.893 24.116 118.236C25.856 118.579 27.423 119.515 28.5494 120.885C29.6757 122.254 30.2916 123.973 30.2917 125.746C30.3101 126.744 30.1243 127.736 29.7457 128.659C29.3672 129.583 28.8039 130.42 28.0903 131.118ZM19.3824 129.163C20.043 129.839 20.8921 130.3 21.8187 130.486C22.7453 130.671 23.7064 130.573 24.5764 130.204C25.4464 129.835 26.1849 129.212 26.6953 128.417C27.2058 127.622 27.4646 126.691 27.4378 125.746C27.4585 125.112 27.349 124.481 27.1162 123.892C26.8833 123.302 26.532 122.767 26.0839 122.318C25.1859 121.451 23.9866 120.967 22.7386 120.967C21.4905 120.967 20.2912 121.451 19.3932 122.318C18.5248 123.246 18.0417 124.47 18.0417 125.741C18.0417 127.012 18.5248 128.235 19.3932 129.163H19.3824Z" fill="#397AE3"/>
<path d="M37.1702 130.274H42.7182V133.017H34.3027V118.477H37.1702V130.274Z" fill="#397AE3"/>
<path d="M57.6764 131.117C56.4319 132.378 54.7882 133.169 53.0259 133.353C51.2635 133.537 49.492 133.103 48.0137 132.126C46.5355 131.149 45.4423 129.69 44.9208 127.996C44.3993 126.303 44.4819 124.481 45.1545 122.841C45.8271 121.202 47.0479 119.847 48.6085 119.008C50.169 118.169 51.9726 117.897 53.711 118.24C55.4494 118.583 57.0149 119.519 58.1402 120.887C59.2654 122.256 59.8805 123.973 59.8804 125.745C59.8995 126.744 59.7137 127.735 59.3346 128.659C58.9556 129.583 58.3912 130.42 57.6764 131.117ZM48.9712 129.162C49.8724 130.023 51.0705 130.503 52.3165 130.503C53.5626 130.503 54.7607 130.023 55.6619 129.162C56.5303 128.234 57.0134 127.011 57.0134 125.74C57.0134 124.469 56.5303 123.245 55.6619 122.317C54.7639 121.45 53.5646 120.966 52.3165 120.966C51.0685 120.966 49.8692 121.45 48.9712 122.317C48.1028 123.245 47.6197 124.469 47.6197 125.74C47.6197 127.011 48.1028 128.234 48.9712 129.162Z" fill="#397AE3"/>
<path d="M69.6769 118.478C70.6109 118.456 71.539 118.632 72.4005 118.993C73.2619 119.355 74.0371 119.895 74.6753 120.577C75.9642 121.992 76.6785 123.837 76.6785 125.751C76.6785 127.665 75.9642 129.511 74.6753 130.926C74.0363 131.607 73.2608 132.145 72.3995 132.506C71.5382 132.866 70.6104 133.041 69.6769 133.019H63.8906V118.478H69.6769ZM69.6769 130.281C70.2497 130.302 70.8203 130.201 71.3507 129.983C71.8811 129.766 72.3591 129.439 72.7529 129.022C73.5435 128.186 73.9388 127.096 73.9388 125.751C73.9388 124.406 73.5435 123.315 72.7529 122.478C72.359 122.061 71.8811 121.733 71.3507 121.516C70.8204 121.298 70.2498 121.196 69.6769 121.216H66.7581V130.276L69.6769 130.281Z" fill="#397AE3"/>
<path d="M80.7012 118.477H83.5686V133.017H80.7012V118.477Z" fill="#397AE3"/>
<path d="M91.1331 130.274H96.6811V133.017H88.2656V118.477H91.1331V130.274Z" fill="#397AE3"/>
<path d="M108.712 118.477H111.58V133.017H109.397L103.17 124.122V133.017H100.297V118.477H102.479L108.707 127.35L108.712 118.477Z" fill="#397AE3"/>
<path d="M116.273 118.477H119.141V133.017H116.273V118.477Z" fill="#397AE3"/>
<path d="M135.204 133.017H131.901L126.705 126.202V133.017H123.832V118.477H126.699V124.896L131.684 118.477H134.988L129.608 125.541L135.204 133.017Z" fill="#397AE3"/>
</svg>
