<svg width="350" height="134" viewBox="0 0 350 134" fill="none" xmlns="http://www.w3.org/2000/svg">
<path d="M0.822266 0.400391V133.2H327.209L349.686 0.400391H0.822266Z" fill="#FF0000"/>
<path d="M180.291 52.3314C180.081 52.1464 179.831 52.0115 179.561 51.9367C179.132 51.8041 178.688 51.7234 178.24 51.6964C177.691 51.6449 176.987 51.6191 176.137 51.6191C175.288 51.6191 174.618 51.6191 174.069 51.6964C173.623 51.7241 173.182 51.8048 172.756 51.9367C172.494 52.0065 172.255 52.1424 172.061 52.3314C172.026 52.3731 171.997 52.4193 171.975 52.4688L169.512 64.0031C169.509 64.1388 169.552 64.2715 169.632 64.3808C169.718 64.4994 169.833 64.594 169.967 64.6554C170.16 64.7404 170.366 64.7954 170.576 64.8185C170.892 64.8567 171.21 64.8739 171.529 64.8699C171.838 64.8734 172.148 64.8562 172.455 64.8185C172.655 64.7981 172.85 64.743 173.03 64.6554C173.209 64.5367 173.365 64.3887 173.494 64.2177L180.463 52.7863C180.445 52.6299 180.379 52.4829 180.274 52.3658L180.291 52.3314Z" fill="white"/>
<path d="M285.929 52.3314C285.724 52.1434 285.477 52.0079 285.208 51.9367C284.776 51.8042 284.329 51.7236 283.878 51.6964C283.328 51.6449 282.633 51.6191 281.775 51.6191C280.917 51.6191 280.256 51.6191 279.715 51.6964C279.27 51.7241 278.829 51.8048 278.402 51.9367C278.138 52.0065 277.896 52.1424 277.699 52.3314C277.67 52.3753 277.644 52.4212 277.621 52.4688L275.158 64.0031C275.164 64.1375 275.205 64.2678 275.278 64.3808C275.367 64.5006 275.485 64.5952 275.622 64.6554C275.814 64.7426 276.02 64.7977 276.231 64.8185C276.544 64.8567 276.86 64.8739 277.175 64.8699C277.485 64.874 277.794 64.8568 278.102 64.8185C278.304 64.7981 278.502 64.7429 278.685 64.6554C278.86 64.5321 279.016 64.3847 279.149 64.2177L286.109 52.7863C286.099 52.6278 286.032 52.4783 285.92 52.3658L285.929 52.3314Z" fill="white"/>
<path d="M155.301 80.6689C154.77 83.6659 153.452 86.4678 151.482 88.7876C150.716 89.734 149.738 90.4861 148.627 90.9828C147.516 91.4794 146.303 91.7065 145.088 91.6454C142.256 91.4995 140.436 90.1435 139.63 87.5517C139.009 85.0301 139.024 82.3939 139.673 79.8793C140.153 77.2358 141.25 74.7426 142.874 72.6017C143.632 71.5311 144.649 70.6698 145.83 70.0981C147.011 69.5263 148.318 69.2628 149.628 69.3319C150.808 69.3168 151.964 69.671 152.934 70.345C153.903 71.0189 154.638 71.979 155.035 73.0909C155.856 75.5376 155.948 78.1705 155.301 80.6689ZM166.166 66.8173C163.253 62.389 158.45 60.0031 151.756 59.6598C145.905 59.2151 140.098 60.962 135.463 64.561C130.828 68.1599 127.697 73.3538 126.679 79.1327C124.002 91.9544 130.584 100.708 143.054 101.326C148.789 101.721 154.474 100.03 159.06 96.563C163.883 92.9184 166.969 87.8321 168.32 81.304C169.504 75.6283 168.786 70.7994 166.166 66.8173Z" fill="white"/>
<path d="M297.052 61.6085C296.749 61.4075 296.406 61.2729 296.048 61.2137C295.402 61.0833 294.748 61.0001 294.091 60.9648H292.915H288.925H287.74C287.046 61.0041 286.355 61.0872 285.672 61.2137C285.351 61.278 285.037 61.3758 284.736 61.5055L267.864 81.8795L271.297 62.0977C271.312 62.0075 271.304 61.9149 271.272 61.8291C271.24 61.7433 271.187 61.6672 271.117 61.6085C270.828 61.4098 270.5 61.2752 270.155 61.2137C269.533 61.0843 268.902 61.0011 268.267 60.9648H267.143H263.29H262.157C261.488 61.0034 260.823 61.0865 260.166 61.2137C259.771 61.2808 259.391 61.4143 259.042 61.6085C258.978 61.6561 258.921 61.7108 258.87 61.7716L251.936 99.6187C251.971 99.6932 252.021 99.7602 252.081 99.8161C252.386 100.017 252.727 100.154 253.086 100.22C253.731 100.346 254.385 100.427 255.042 100.46C255.9 100.511 256.93 100.537 258.226 100.537C259.522 100.537 260.543 100.537 261.393 100.46C262.087 100.423 262.778 100.343 263.461 100.22C263.842 100.146 264.212 100.022 264.56 99.8505L265.049 99.2669L281.286 79.8455L277.854 99.6273C277.882 99.7035 277.929 99.7714 277.991 99.8247C278.283 100.024 278.613 100.162 278.961 100.228C279.58 100.355 280.208 100.436 280.84 100.468C281.63 100.52 282.66 100.546 283.904 100.546C285.148 100.546 286.135 100.546 286.951 100.468C287.619 100.432 288.284 100.352 288.942 100.228C289.336 100.155 289.715 100.019 290.066 99.8247C290.167 99.7658 290.254 99.6869 290.323 99.593L297.189 61.9175C297.162 61.799 297.095 61.6931 297 61.6171L297.052 61.6085Z" fill="white"/>
<path d="M196.203 99.2586L196.383 99.6963L196.538 99.8164C196.908 100.021 197.312 100.158 197.731 100.22C198.497 100.347 199.271 100.427 200.048 100.46C201.026 100.512 202.279 100.537 203.824 100.537C205.369 100.537 206.57 100.537 207.574 100.46C208.393 100.424 209.21 100.343 210.02 100.22C210.5 100.148 210.967 100.012 211.411 99.8164C211.694 99.6705 211.926 99.4817 211.968 99.2586L202.271 78.0521L217.212 62.0379C217.24 61.9682 217.249 61.8922 217.236 61.8181C217.224 61.744 217.192 61.6746 217.143 61.6174C216.862 61.414 216.535 61.2815 216.191 61.2312C215.521 61.0907 214.841 61.0075 214.157 60.9823C213.299 60.9308 212.183 60.9051 210.827 60.9051C209.471 60.9051 208.252 60.9051 207.394 60.9823C206.629 61.0142 205.866 61.0973 205.111 61.2312C204.64 61.3068 204.18 61.4364 203.738 61.6174C203.661 61.6639 203.586 61.7155 203.515 61.7719L190.144 76.0182L192.624 62.1495C192.596 62.036 192.545 61.9296 192.474 61.8366C192.403 61.7436 192.314 61.6661 192.212 61.6088C191.843 61.4205 191.446 61.2902 191.037 61.2226C190.358 61.0869 189.669 61.0037 188.977 60.9737C188.119 60.9222 187.08 60.8965 185.81 60.8965C184.54 60.8965 183.45 60.8965 182.626 60.9737C181.968 61.0004 181.313 61.0836 180.669 61.2226C180.313 61.2841 179.971 61.4153 179.665 61.6088C179.632 61.6433 179.606 61.6842 179.588 61.729L172.834 99.3272L172.877 99.25C172.841 99.3498 172.84 99.4587 172.872 99.5596C172.905 99.6605 172.97 99.7478 173.057 99.8078C173.361 100.008 173.703 100.146 174.061 100.211C174.707 100.338 175.361 100.418 176.018 100.451C176.876 100.503 177.906 100.529 179.202 100.529C180.498 100.529 181.519 100.529 182.369 100.451C183.06 100.415 183.748 100.335 184.428 100.211C184.839 100.139 185.236 100.003 185.604 99.8078C185.751 99.7189 185.869 99.5912 185.947 99.4388L189.089 81.8369L196.203 99.25V99.2586Z" fill="white"/>
<path d="M250.769 68.2943C251 67.7654 251.184 67.2168 251.318 66.6551C251.464 66.0543 251.567 65.4793 251.661 64.9387C251.756 64.398 251.816 63.8831 251.859 63.4368C251.902 62.9905 251.919 62.673 251.919 62.4927C251.919 61.6345 251.713 61.111 251.292 60.8965H225.718C224.897 60.9059 224.078 60.9575 223.263 61.051C222.785 61.112 222.319 61.2451 221.881 61.4457C221.693 61.5312 221.528 61.6607 221.401 61.8233L219.942 70.0107L218.929 75.6835L217.29 84.7977L216.234 90.9082L214.732 99.25H214.775C214.698 99.4731 214.887 99.6534 215.11 99.8078C215.48 100.013 215.884 100.149 216.303 100.211C217.073 100.338 217.849 100.418 218.629 100.451C219.581 100.451 220.826 100.52 222.328 100.529H244.092C244.324 100.44 244.528 100.292 244.684 100.1C245.016 99.7151 245.28 99.2768 245.465 98.8037C245.693 98.2479 245.874 97.6737 246.006 97.0873C246.152 96.4608 246.272 95.8515 246.358 95.2679C246.443 94.6843 246.503 94.1608 246.546 93.6802C246.589 93.1996 246.615 92.882 246.615 92.6932C246.615 91.4917 246.237 90.8996 245.482 90.8996H229.313L230.429 84.7548H243.766C244.036 84.6815 244.28 84.5326 244.469 84.3257C244.795 83.9584 245.058 83.5411 245.25 83.0898C245.477 82.5627 245.658 82.0172 245.791 81.4592C245.928 80.8585 246.049 80.2749 246.134 79.7428C246.22 79.2107 246.289 78.6872 246.332 78.2409C246.375 77.7947 246.4 77.4771 246.4 77.2969C246.4 76.3357 246.117 75.8036 245.542 75.6577H232.06L233.081 69.985H249.138C249.474 69.9417 249.78 69.773 249.996 69.5129C250.327 69.1533 250.592 68.7378 250.777 68.2857L250.769 68.2943Z" fill="white"/>
<path d="M66.0453 108.906C63.9341 109.138 61.8143 109.327 59.6946 109.43C59.6946 109.43 32.9698 97.7497 33.2959 72.6984C33.5448 53.2599 42.5989 47.5785 42.5989 47.5785C47.0469 49.5685 51.0862 52.3681 54.5109 55.8346C57.277 58.9061 59.5628 62.3782 61.2908 66.1331C61.2908 66.1331 63.7539 52.5476 76.7387 41.4938C95.791 24.2437 116.379 25.6941 116.379 25.6941C119.309 33.1817 120.839 41.1434 120.894 49.1834C121.22 80.86 102.013 103.74 72.0957 108.117C70.0875 108.409 68.0707 108.683 66.0453 108.906Z" fill="white"/>
<path d="M65.8567 107.238C64.0987 107.433 62.3336 107.592 60.5684 107.678C60.5684 107.678 38.3149 97.8653 38.5864 76.8192C38.7937 60.4885 46.333 55.7155 46.333 55.7155C50.0368 57.3873 53.4003 59.7393 56.2521 62.6515C58.5554 65.232 60.4588 68.149 61.8977 71.3036C61.8977 71.3036 63.9486 59.8901 74.761 50.6036C90.6257 36.1114 107.77 37.3299 107.77 37.3299C110.209 43.6204 111.483 50.3092 111.529 57.0638C111.8 83.676 95.8068 102.898 70.8948 106.575C69.2226 106.82 67.5432 107.051 65.8567 107.238Z" fill="#FEF100"/>
<path d="M65.8567 107.238C64.0987 107.433 62.3336 107.592 60.5684 107.678C60.5684 107.678 38.3149 97.8653 38.5864 76.8192C38.7937 60.4885 46.333 55.7155 46.333 55.7155C50.0368 57.3873 53.4003 59.7393 56.2521 62.6515C58.5554 65.232 60.4588 68.149 61.8977 71.3036C61.8977 71.3036 63.9486 59.8901 74.761 50.6036C90.6257 36.1114 107.77 37.3299 107.77 37.3299C110.209 43.6204 111.483 50.3092 111.529 57.0638C111.8 83.676 95.8068 102.898 70.8948 106.575C69.2226 106.82 67.5432 107.051 65.8567 107.238Z" fill="url(#paint0_linear_629_2045)"/>
<defs>
<linearGradient id="paint0_linear_629_2045" x1="88" y1="65.4004" x2="55" y2="152.4" gradientUnits="userSpaceOnUse">
<stop offset="0.0856565" stop-color="#00A13A"/>
<stop offset="1" stop-color="#FEF100" stop-opacity="0"/>
</linearGradient>
</defs>
</svg>
