<svg width="380" height="134" viewBox="0 0 380 134" fill="none" xmlns="http://www.w3.org/2000/svg">
<path d="M0.0253906 0.599609H379.645V133.399H0.0253906V0.599609Z" fill="#0A49F5"/>
<path d="M53.8672 30.4998C61.488 29.6269 69.19 31.1805 75.8765 34.9394C80.2315 37.3863 84.0485 40.6858 87.0997 44.6409C90.1509 48.5959 92.3736 53.1254 93.635 57.9588C94.8892 62.2097 94.7449 66.6937 94.5895 71.0778C93.5605 80.4491 88.9713 89.0671 81.7701 95.1516C75.2829 100.675 67.049 103.723 58.5288 103.753C49.9082 103.992 41.4933 101.098 34.8435 95.6067C28.0966 90.1826 23.4841 82.5484 21.8207 74.0529C20.1574 65.5574 21.5503 56.7474 25.7534 49.1794C28.6081 44.0478 32.65 39.6742 37.5411 36.4244C42.4322 33.1746 48.0302 31.1431 53.8672 30.4998ZM292.03 32.3311C293.961 30.9327 295.837 33.1303 297.224 34.2069C309.999 44.2959 322.752 54.4515 335.494 64.5294C337.358 66.1683 339.334 67.674 341.41 69.0356C341.41 59.5237 341.41 50.0008 341.41 40.4778C341.442 38.9201 341.88 37.3977 342.68 36.0607C343.48 34.7236 344.614 33.618 345.971 32.8528C347.108 32.2486 348.368 31.9116 349.654 31.8674C350.941 31.8232 352.221 32.0729 353.396 32.5975C354.884 33.2034 356.163 34.2313 357.074 35.5546C357.985 36.8779 358.489 38.4387 358.524 40.045C358.524 59.7124 358.524 79.3799 358.524 99.0474C358.616 99.9875 358.385 100.931 357.869 101.722C356.205 102.732 355.017 102.233 353.785 101.134C352.553 100.035 351.421 99.2139 350.222 98.2815C336.193 87.1825 322.219 76.0058 308.168 64.9845C308.168 74.463 308.168 83.9305 308.168 93.4202C308.199 94.796 307.9 96.1594 307.298 97.3968C306.696 98.6342 305.807 99.71 304.705 100.535C303.613 101.294 302.376 101.817 301.07 102.072C299.765 102.326 298.421 102.305 297.124 102.011C295.25 101.35 293.634 100.11 292.51 98.4695C291.387 96.8294 290.814 94.8744 290.876 92.8874C290.876 73.7971 290.876 54.7068 290.876 35.6164C290.965 34.5065 290.876 32.9416 292.074 32.2867L292.03 32.3311ZM48.3177 49.9231C46.7257 50.9134 45.2383 52.0624 43.8781 53.3527C40.5291 56.7337 38.5404 61.2283 38.2907 65.9807C38.041 70.733 39.5477 75.4112 42.524 79.1246C44.8012 81.9119 47.7443 84.0801 51.0813 85.4289C53.5174 86.3339 56.1087 86.747 58.7053 86.6441C61.302 86.5412 63.8525 85.9245 66.2093 84.8295C69.0496 83.5001 71.5355 81.5182 73.4644 79.0454C75.3932 76.5727 76.7103 73.6791 77.3083 70.6006C77.7683 68.0329 77.7141 65.3995 77.1489 62.8529C76.5836 60.3064 75.5186 57.8973 74.0154 55.7655C72.5122 53.6336 70.6009 51.8212 68.3921 50.4335C66.1834 49.0458 63.7211 48.1102 61.1481 47.6811C56.7613 46.9368 52.2518 47.7204 48.3732 49.9009L48.3177 49.9231ZM203.504 34.329C215.904 29.8812 229.306 29.0195 242.173 31.8428C249.979 33.4314 257.364 36.6418 263.85 41.2659C269.843 45.5279 274.949 51.4547 277.224 58.5137C279.304 64.7486 279.04 71.5279 276.48 77.5819C273.839 83.8861 269.011 89.0249 263.55 93.0317C250.819 102.011 234.604 104.93 219.298 103.365C206.468 102 193.693 97.0384 184.458 87.8262C181.817 85.0057 179.641 81.7839 178.01 78.2811C176.242 74.3137 175.436 69.985 175.658 65.6474C175.88 61.3097 177.123 57.0857 179.286 53.3194C184.48 44.1072 193.77 37.9251 203.504 34.329ZM201.151 54.6957C197.711 57.1374 194.336 60.2452 193.16 64.4628C192.816 65.6113 192.703 66.8164 192.827 68.0089C192.95 69.2013 193.309 70.3575 193.881 71.4108C195.679 75.2621 199.054 78.0702 202.605 80.29C204.847 81.6088 207.193 82.741 209.62 83.6752C216.34 86.046 223.477 87.0094 230.586 86.5055C239.176 85.9616 247.889 83.4532 254.771 78.1257C257.756 75.6728 260.542 72.5762 261.308 68.6471C261.941 65.0954 260.265 61.5882 257.978 58.9799C253.772 54.2073 247.878 51.2772 241.862 49.4902C228.544 45.6389 212.894 46.8376 201.162 54.6957H201.151ZM108.508 34.0848C110.262 32.5604 112.534 31.7661 114.856 31.865H167.299C168.409 31.865 169.863 31.9649 170.396 33.1525C170.929 34.3401 170.329 35.672 169.574 36.6487C159.186 50.4226 148.686 64.1076 138.32 77.9037C136.566 80.2234 134.657 82.4321 133.147 84.9072C142.337 84.996 151.539 84.9072 160.729 84.9072C163.015 84.9072 165.468 85.1958 167.288 86.7163C168.695 87.7768 169.741 89.2459 170.282 90.923C170.823 92.6 170.833 94.4032 170.311 96.0862C169.789 97.7692 168.76 99.25 167.365 100.326C165.969 101.403 164.276 102.022 162.516 102.1C143.281 102.233 124.035 102.1 104.801 102.166C103.502 102.166 101.748 102.288 101.049 100.912C100.35 99.5357 101.193 98.3814 101.771 97.2937C102.67 96.2726 103.558 95.2404 104.357 94.1305C113.458 81.9992 122.726 69.9901 131.793 57.8367C133.003 56.2939 134.213 54.7401 135.356 53.1418C136.492 51.8966 137.492 50.535 138.342 49.0796C130.373 48.9131 122.415 49.0796 114.457 49.0019C112.673 49.0032 110.93 48.467 109.455 47.4633C107.98 46.4595 106.841 45.0348 106.188 43.3747C105.63 41.763 105.552 40.0238 105.964 38.3687C106.375 36.7135 107.259 35.2137 108.508 34.0515V34.0848Z" fill="white"/>
</svg>
