<svg width="566" height="134" viewBox="0 0 566 134" fill="none" xmlns="http://www.w3.org/2000/svg">
<path d="M565.423 0.400391H0V133.2H565.423V0.400391Z" fill="#AE119C"/>
<path d="M57.8013 92.7992L43.1914 40.7283H52.7983L64.0019 80.6962L76.0571 40.7283H84.9987L97.0805 80.9009L108.364 40.7283H117.944L103.334 92.7479H92.2105L80.448 53.9059L68.7654 92.7736L57.8013 92.7992ZM124.571 40.7283H133.672V92.7224H124.544L124.571 40.7283ZM153.205 84.5599H175.452V92.7224H144.317V40.7283H153.258L153.205 84.5599ZM203.528 40.7283C207.007 40.6437 210.466 41.268 213.677 42.5602C216.887 43.8523 219.777 45.783 222.156 48.2255C226.983 53.2582 229.663 59.8536 229.663 66.6997C229.663 73.5459 226.983 80.1413 222.156 85.174C219.777 87.6165 216.887 89.5472 213.677 90.8393C210.466 92.1315 207.007 92.7558 203.528 92.6712H182.052V40.7283H203.528ZM203.528 84.5599C205.88 84.6481 208.224 84.2351 210.391 83.3504C212.558 82.4656 214.494 81.1311 216.062 79.4424C219.235 75.8778 220.978 71.3404 220.978 66.6486C220.978 61.9568 219.235 57.4194 216.062 53.8548C214.477 52.1866 212.538 50.8661 210.375 49.9831C208.212 49.1 205.877 48.6751 203.528 48.7373H191.047V84.3552L203.528 84.5599ZM277.802 77.8048C277.856 79.801 277.459 81.7849 276.636 83.6185C275.813 85.4522 274.586 87.0918 273.038 88.4237C269.877 91.2458 265.695 92.7698 261.382 92.6712H238.017V40.7283H259.679C263.873 40.6525 267.934 42.1376 271.016 44.8735C272.519 46.1518 273.714 47.7297 274.518 49.4973C275.322 51.2649 275.716 53.1797 275.673 55.1086C275.742 57.1817 275.272 59.2386 274.306 61.0929C273.339 62.9472 271.906 64.5402 270.138 65.7274C272.477 66.8383 274.44 68.5661 275.797 70.7091C277.154 72.852 277.849 75.3218 277.802 77.8304V77.8048ZM247.038 48.814V62.4778H259.759C261.643 62.4778 263.451 61.758 264.783 60.4768C266.116 59.1956 266.864 57.4578 266.864 55.6459C266.864 53.8339 266.116 52.0962 264.783 50.815C263.451 49.5338 261.643 48.814 259.759 48.814H247.038ZM261.462 84.6367C263.385 84.5268 265.193 83.7147 266.514 82.3663C267.836 81.018 268.572 79.2353 268.572 77.3826C268.572 75.5299 267.836 73.7472 266.514 72.3989C265.193 71.0505 263.385 70.2384 261.462 70.1285H247.038V84.7135H261.409L261.462 84.6367ZM295.259 84.6367H319.449V92.7736H286.318V40.7283H319.05V48.8908H295.259V62.401H317.107V70.4867H295.259V84.6367ZM358.595 92.7736L347.019 73.8387H336.375V92.7736H327.433V40.7283H349.228C353.861 40.7281 358.307 42.4854 361.601 45.6187C364.895 48.7519 366.769 53.008 366.818 57.4627C366.79 60.732 365.739 63.9175 363.802 66.6052C361.866 69.2929 359.134 71.3585 355.961 72.5337L368.362 92.7224L358.595 92.7736ZM336.428 48.814V66.316H349.228C351.508 66.1477 353.638 65.1582 355.191 63.5452C356.745 61.9322 357.608 59.8147 357.608 57.6162C357.608 55.4176 356.745 53.3001 355.191 51.6872C353.638 50.0742 351.508 49.0846 349.228 48.9164L336.428 48.814ZM406.39 92.7736L394.867 73.8131H384.223V92.7736H375.281V40.7283H397.129C401.767 40.7281 406.217 42.489 409.512 45.6277C412.806 48.7665 414.678 53.0291 414.72 57.4882C414.688 60.7502 413.638 63.928 411.707 66.6103C409.776 69.2926 407.053 71.356 403.889 72.5337L416.29 92.7479L406.39 92.7736ZM384.276 48.7884V66.316H397.129C398.287 66.2962 399.429 66.0552 400.489 65.6068C401.549 65.1585 402.506 64.5119 403.303 63.7046C404.101 62.8973 404.723 61.9455 405.135 60.9046C405.546 59.8637 405.737 58.7545 405.698 57.6417C405.756 55.3946 404.888 53.2168 403.283 51.5825C401.678 49.9482 399.466 48.99 397.129 48.9164L384.276 48.7884ZM422.89 40.7283H431.725V92.7479H422.783L422.89 40.7283ZM451.338 84.6111H475.528V92.7479H442.37V40.7283H475.102V48.8908H451.311V62.401H473.16V70.4867H451.311L451.338 84.6111ZM481.755 80.9265L489.499 76.6021C490.376 79.33 492.199 81.6865 494.664 83.2789C497.129 84.8713 500.087 85.6034 503.045 85.3532C509.831 85.3532 513.184 82.6152 513.184 78.5212C513.227 77.5675 513.003 76.6201 512.535 75.7783C512.067 74.9364 511.372 74.2311 510.523 73.7363C507.484 72.0756 504.226 70.8189 500.836 70.0006C496.764 69.0499 492.888 67.4498 489.366 65.2668C487.616 64.1052 486.207 62.5296 485.275 60.692C484.343 58.8545 483.919 56.8169 484.044 54.7759C483.952 52.6966 484.372 50.6258 485.269 48.7318C486.166 46.8378 487.515 45.174 489.207 43.8756C492.691 41.1202 497.098 39.6746 501.608 39.8072C505.599 39.6945 509.536 40.7206 512.922 42.756C516.309 44.7915 518.992 47.7451 520.635 51.2448L513.077 55.3901C512.192 53.1805 510.61 51.2924 508.554 49.9895C506.497 48.6866 504.069 48.0341 501.608 48.1232C496.285 48.1232 493.065 50.6819 493.065 54.5969C493.065 58.5118 495.726 60.2261 504.083 62.6825C506.132 63.3478 507.649 63.834 508.607 64.1922C509.565 64.5504 510.922 65.0366 512.625 65.7019C514.057 66.1881 515.397 66.8969 516.59 67.8C518.389 68.9764 519.847 70.5725 520.829 72.4386C521.811 74.3048 522.285 76.38 522.205 78.4701C522.293 80.6084 521.857 82.7367 520.932 84.6833C520.008 86.63 518.621 88.3406 516.883 89.6775C512.864 92.5625 507.92 94.0021 502.912 93.7459C492.267 93.7459 484.629 88.9098 481.808 80.9521L481.755 80.9265Z" fill="white"/>
</svg>
